<svg xmlns="http://www.w3.org/2000/svg" viewBox="0 0 399.52 86.61"><defs><style>.cls-1{font-size:43px;font-family:Calibri-Bold, Calibri;font-weight:700;}.cls-1,.cls-9{fill:#6a8aa7;}.cls-2{letter-spacing:-0.01em;}.cls-3{letter-spacing:0em;}.cls-4,.cls-7{letter-spacing:0em;}.cls-5{letter-spacing:-0.01em;}.cls-6,.cls-7{fill:#b5b5b6;}.cls-6{letter-spacing:-0.01em;}.cls-8{fill:#58595b;}</style></defs><title>fsc-logo</title><g id="Layer_2" data-name="Layer 2"><g id="Layer_1-2" data-name="Layer 1"><text class="cls-1" transform="translate(98.67 52.2)">F<tspan class="cls-2" x="19.74" y="0">R</tspan><tspan x="43.52" y="0">ON</tspan><tspan class="cls-3" x="100.93" y="0">T</tspan><tspan class="cls-4" x="122.01" y="0">SID</tspan><tspan class="cls-5" x="180.9" y="0">E</tspan><tspan class="cls-6" x="201.25" y="0">C</tspan><tspan class="cls-7" x="223.69" y="0">ODE</tspan></text><path class="cls-8" d="M48.51,0H6A6,6,0,0,0,0,6V26.26L39.07,6.37l-1.92,8.27L9.59,30.34l21,12.53-1.51,6.52L0,34.35V80.63a6,6,0,0,0,6,6h22.4Z"/><path class="cls-9" d="M59.76,11.31,89,26.25V6a6,6,0,0,0-6-6H54.43L34.32,86.61H61.06L56.78,67a7.16,7.16,0,0,1-.18-1.58,7.49,7.49,0,0,1,5.88-7.31L89,52.29V34.36L49.67,54.7l2-8.43L79.39,30.34,58.23,17.84Z"/><path class="cls-9" d="M61.6,66.38a4.45,4.45,0,0,0,.11.94l3.68,16.91,21.76-27-22,4.8A4.5,4.5,0,0,0,61.6,66.38Z"/></g></g></svg>