<svg xmlns="http://www.w3.org/2000/svg" viewBox="0 0 165.88 161.42"><defs><style>.cls-1{fill:#58595b;}.cls-2{fill:#6a8aa7;}</style></defs><title>fsc-icon</title><g id="Layer_2" data-name="Layer 2"><g id="Layer_1-2" data-name="Layer 1"><path class="cls-1" d="M90.41,0H11.13A11.16,11.16,0,0,0,0,11.13V48.94L72.82,11.88,69.23,27.29,17.87,56.55,57,79.91,54.18,92.05,0,64v86.26a11.16,11.16,0,0,0,11.13,11.13H52.89Z"/><path class="cls-2" d="M111.39,21.09l54.49,27.84V11.13A11.16,11.16,0,0,0,154.75,0H101.44L64,161.42H113.8l-8-36.61a14.26,14.26,0,0,1-.32-3,14,14,0,0,1,11-13.62l49.42-10.77V64L92.58,102l3.65-15.71L148,56.55l-39.42-23.3Z"/><path class="cls-2" d="M114.82,123.71a8.33,8.33,0,0,0,.19,1.77L121.88,157l40.56-50.38-41.06,9A8.37,8.37,0,0,0,114.82,123.71Z"/></g></g></svg>